<svg width="32" height="32" xmlns="http://www.w3.org/2000/svg">

 <g>
  <title>background</title>
  <rect fill="none" id="canvas_background" height="402" width="582" y="-1" x="-1"/>
 </g>
 <g>
  <title>Layer 1</title>
  <path id="svg_1" fill="#e9ecef" d="m31,18c-0.509,0 -1,0.438 -1,1l0,11l-28,0l0,-28l11,0c0.531,0 1,-0.469 1,-1c0,-0.531 -0.5,-1 -1,-1l-11,0c-1.105,0 -2,0.895 -2,2l0,28c0,1.105 0.895,2 2,2l28,0c1.105,0 2,-0.895 2,-2l0,-11.015c0,-0.554 -0.406,-0.985 -1,-0.985z"/>
  <path id="svg_2" fill="#e9ecef" d="m31.04908,0l-10,0c-0.552,0 -1,0.448 -1,1c0,0.552 0.448,1 1,1l7.596,0l-20.314,20.313c-0.388,0.388 -0.388,1.017 0,1.405c0.388,0.388 1.017,0.388 1.404,0l20.314,-20.314l0,7.596c0,0.552 0.448,1 1,1s1,-0.448 1,-1l0,-10l0,0c0,-0.538 -0.462,-1 -1,-1z"/>
 </g>
</svg>